<?xml version="1.0" standalone="no"?>
<!DOCTYPE svg PUBLIC "-//W3C//DTD SVG 1.1//EN" "http://www.w3.org/Graphics/SVG/1.1/DTD/svg11.dtd" >
<!--
2013-9-30: Created.
-->
<svg>
<metadata>
Created by iconfont
</metadata>
<defs>

<font id="iconfont" horiz-adv-x="1024" >
  <font-face
    font-family="iconfont"
    font-weight="500"
    font-stretch="normal"
    units-per-em="1024"
    ascent="896"
    descent="-128"
  />
    <missing-glyph />
    
    <glyph glyph-name="tupianzhanshi" unicode="&#59248;" d="M128 768v-341.333333h256V768H128z m-21.333333 85.333333h298.666666A64 64 0 0 0 469.333333 789.333333v-384A64 64 0 0 0 405.333333 341.333333h-298.666666A64 64 0 0 0 42.666667 405.333333v384A64 64 0 0 0 106.666667 853.333333zM128 0h256v170.666667H128v-170.666667z m-21.333333 256h298.666666a64 64 0 0 0 64-64v-213.333333A64 64 0 0 0 405.333333-85.333333h-298.666666A64 64 0 0 0 42.666667-21.333333v213.333333A64 64 0 0 0 106.666667 256zM640 597.333333h256V768h-256v-170.666667z m-21.333333 256h298.666666A64 64 0 0 0 981.333333 789.333333v-213.333333A64 64 0 0 0 917.333333 512h-298.666666A64 64 0 0 0 554.666667 576v213.333333A64 64 0 0 0 618.666667 853.333333zM640 0h256v341.333333h-256v-341.333333z m-21.333333 426.666667h298.666666a64 64 0 0 0 64-64v-384a64 64 0 0 0-64-64h-298.666666a64 64 0 0 0-64 64v384a64 64 0 0 0 64 64z"  horiz-adv-x="1024" />

    
    <glyph glyph-name="biaoqian" unicode="&#59229;" d="M108.288 787.712l4.096-348.458667 465.152-465.152 344.32 344.362667L456.789333 783.616l-348.458666 4.096z m366.848 81.066667a42.666667 42.666667 0 0 0 29.653333-12.544l477.44-477.44a85.333333 85.333333 0 0 0 0-120.661334l-344.362666-344.32a85.333333 85.333333 0 0 0-120.704 0L39.722667 391.168a42.666667 42.666667 0 0 0-12.458667 29.653333L22.485333 830.378667A42.666667 42.666667 0 0 0 64.64 873.514667l410.453333-4.778667zM341.333333 512a42.666667 42.666667 0 1 1 0 85.333333 42.666667 42.666667 0 0 1 0-85.333333z m0-85.333333a128 128 0 1 0 0 256 128 128 0 0 0 0-256z"  horiz-adv-x="1024" />

    
    <glyph glyph-name="-zhexiantu" unicode="&#59230;" d="M727.338667 592.768l-157.44-270.250667-93.866667 158.549334a42.666667 42.666667 0 0 1-40.96 21.162666 42.666667 42.666667 0 0 1-40.96-21.162666l-183.594667-317.994667a42.666667 42.666667 0 0 1 73.898667-42.666667l151.04 261.674667 91.648-154.88a42.666667 42.666667 0 0 1 78.677333-12.458667l193.706667 332.330667 10.666667-78.677333a42.666667 42.666667 0 0 1 84.906666 8.96l-26.197333 192.426666a42.666667 42.666667 0 0 1-3.413333 12.928 42.666667 42.666667 0 0 1-54.656 30.592L627.882667 647.68a42.666667 42.666667 0 1 1 26.368-81.152l73.045333 26.24zM85.333333 853.333333a42.666667 42.666667 0 0 0 42.666667-42.666666v-853.333334a42.666667 42.666667 0 0 0-85.333333 0V810.666667a42.666667 42.666667 0 0 0 42.666666 42.666666zM981.333333-42.666667a42.666667 42.666667 0 0 0-42.666666-42.666666H85.333333a42.666667 42.666667 0 0 0 0 85.333333h853.333334a42.666667 42.666667 0 0 0 42.666666-42.666667z"  horiz-adv-x="1024" />

    
    <glyph glyph-name="-daima" unicode="&#59220;" d="M280.234667 469.333333L183.253333 566.528a43.093333 43.093333 0 0 0 0 60.885333 42.922667 42.922667 0 0 0 60.757334 0l127.402666-127.658666a42.922667 42.922667 0 0 0 0-60.842667l-127.402666-127.658667a42.922667 42.922667 0 0 0-60.757334 0 43.093333 43.093333 0 0 0 0 60.885334L280.234667 469.333333zM85.333333 725.333333v-682.666666h853.333334V725.333333H85.333333z m0 85.333334h853.333334a85.333333 85.333333 0 0 0 85.333333-85.333334v-682.666666a85.333333 85.333333 0 0 0-85.333333-85.333334H85.333333a85.333333 85.333333 0 0 0-85.333333 85.333334V725.333333a85.333333 85.333333 0 0 0 85.333333 85.333334zM426.666667 384h170.666666a42.666667 42.666667 0 0 0 0-85.333333h-170.666666a42.666667 42.666667 0 0 0 0 85.333333z"  horiz-adv-x="1024" />

    
    <glyph glyph-name="-zhuzhuangtu" unicode="&#59227;" d="M298.666667 512a42.666667 42.666667 0 0 0 42.666666-42.666667v-341.333333a42.666667 42.666667 0 0 0-85.333333 0v341.333333a42.666667 42.666667 0 0 0 42.666667 42.666667zM512 682.666667a42.666667 42.666667 0 0 0 42.666667-42.666667v-512a42.666667 42.666667 0 0 0-85.333334 0V640a42.666667 42.666667 0 0 0 42.666667 42.666667zM725.333333 341.333333a42.666667 42.666667 0 0 0 42.666667-42.666666v-170.666667a42.666667 42.666667 0 0 0-85.333333 0v170.666667a42.666667 42.666667 0 0 0 42.666666 42.666666zM85.333333 853.333333a42.666667 42.666667 0 0 0 42.666667-42.666666v-853.333334a42.666667 42.666667 0 0 0-85.333333 0V810.666667a42.666667 42.666667 0 0 0 42.666666 42.666666zM981.333333-42.666667a42.666667 42.666667 0 0 0-42.666666-42.666666H85.333333a42.666667 42.666667 0 0 0 0 85.333333h853.333334a42.666667 42.666667 0 0 0 42.666666-42.666667z"  horiz-adv-x="1024" />

    
    <glyph glyph-name="-sousuo-o" unicode="&#59136;" d="M490.666667 42.66666699999996a362.666667 362.666667 0 1 1 0 725.333333 362.666667 362.666667 0 0 1 0-725.333333z m0-85.333334C243.242667-42.66666699999996 42.666667 157.90933299999995 42.666667 405.333333S243.242667 853.333333 490.666667 853.333333 938.666667 652.757333 938.666667 405.333333 738.090667-42.66666699999996 490.666667-42.66666699999996zM981.418667-25.002666999999974A42.666667 42.666667 0 0 0 921.088-85.33333300000004l-153.173333 152.576a42.666667 42.666667 0 0 0 60.330666 60.330666l153.173334-152.576z"  horiz-adv-x="1024" />

    
    <glyph glyph-name="-jia" unicode="&#59146;" d="M469.333333 426.666667H85.333333a42.666667 42.666667 0 0 1 0-85.333334h384v-384a42.666667 42.666667 0 0 1 85.333334 0v384h384a42.666667 42.666667 0 0 1 0 85.333334h-384V810.666667a42.666667 42.666667 0 0 1-85.333334 0v-384z"  horiz-adv-x="1024" />

    
    <glyph glyph-name="-jian" unicode="&#59147;" d="M85.333333 426.666667h853.333334a42.666667 42.666667 0 0 0 0-85.333334H85.333333a42.666667 42.666667 0 1 0 0 85.333334z"  horiz-adv-x="1024" />

    
    <glyph glyph-name="-xiangshang" unicode="&#59148;" d="M512 536.234667l-310.528-395.648a43.093333 43.093333 0 0 0-60.885333 0 42.922667 42.922667 0 0 0 0 60.757333l340.992 426.069333a42.922667 42.922667 0 0 0 60.842666 0l340.992-426.069333a42.922667 42.922667 0 0 0 0-60.757333 43.093333 43.093333 0 0 0-60.885333 0L512 536.234667z"  horiz-adv-x="1024" />

    
    <glyph glyph-name="-xiangxia" unicode="&#59155;" d="M512 231.76533300000006L201.472 627.413333a43.093333 43.093333 0 0 1-60.885333 0 42.922667 42.922667 0 0 1 0-60.757333l340.992-426.069333a42.922667 42.922667 0 0 1 60.842666 0l340.992 426.069333a42.922667 42.922667 0 0 1 0 60.757333 43.093333 43.093333 0 0 1-60.885333 0L512 231.76533300000006z"  horiz-adv-x="1024" />

    
    <glyph glyph-name="-xiangzuojiantou" unicode="&#59156;" d="M231.722667 341.33333300000004l267.690666-267.861333a43.093333 43.093333 0 0 0 0-60.885333 42.922667 42.922667 0 0 0-60.757333 0l-340.736 340.992a42.922667 42.922667 0 0 0 0 60.842666l340.736 340.992a42.922667 42.922667 0 0 0 60.757333 0 43.093333 43.093333 0 0 0 0-60.885333L231.722667 426.666667H896a42.666667 42.666667 0 0 0 0-85.333334H231.722667z"  horiz-adv-x="1024" />

    
    <glyph glyph-name="-shanchu" unicode="&#59158;" d="M170.666667 597.333333v-640h682.666666V597.333333H170.666667z m0 85.333334h682.666666a85.333333 85.333333 0 0 0 85.333334-85.333334v-640a85.333333 85.333333 0 0 0-85.333334-85.333333H170.666667a85.333333 85.333333 0 0 0-85.333334 85.333333V597.333333a85.333333 85.333333 0 0 0 85.333334 85.333334zM298.666667 810.666667v-128h426.666666V810.666667H298.666667z m0 85.333333h426.666666a85.333333 85.333333 0 0 0 85.333334-85.333333v-128a85.333333 85.333333 0 0 0-85.333334-85.333334H298.666667a85.333333 85.333333 0 0 0-85.333334 85.333334V810.666667a85.333333 85.333333 0 0 0 85.333334 85.333333zM298.666667 469.333333a42.666667 42.666667 0 0 0 42.666666-42.666666v-298.666667a42.666667 42.666667 0 0 0-85.333333 0v298.666667a42.666667 42.666667 0 0 0 42.666667 42.666666zM512 469.333333a42.666667 42.666667 0 0 0 42.666667-42.666666v-298.666667a42.666667 42.666667 0 0 0-85.333334 0v298.666667a42.666667 42.666667 0 0 0 42.666667 42.666666zM725.333333 469.333333a42.666667 42.666667 0 0 0 42.666667-42.666666v-298.666667a42.666667 42.666667 0 0 0-85.333333 0v298.666667a42.666667 42.666667 0 0 0 42.666666 42.666666zM42.666667 682.666667h938.666666a42.666667 42.666667 0 0 0 0-85.333334H42.666667a42.666667 42.666667 0 1 0 0 85.333334z"  horiz-adv-x="1024" />

    
    <glyph glyph-name="-rili" unicode="&#59172;" d="M213.333333 554.666667h597.333334a42.666667 42.666667 0 0 0 0-85.333334H213.333333a42.666667 42.666667 0 1 0 0 85.333334zM298.666667 896a42.666667 42.666667 0 0 0 42.666666-42.666667v-170.666666a42.666667 42.666667 0 1 0-85.333333 0V853.333333a42.666667 42.666667 0 0 0 42.666667 42.666667zM725.333333 896a42.666667 42.666667 0 0 0 42.666667-42.666667v-170.666666a42.666667 42.666667 0 0 0-85.333333 0V853.333333a42.666667 42.666667 0 0 0 42.666666 42.666667zM85.333333 725.333333v-768h853.333334V725.333333H85.333333z m0 85.333334h853.333334a85.333333 85.333333 0 0 0 85.333333-85.333334v-768a85.333333 85.333333 0 0 0-85.333333-85.333333H85.333333a85.333333 85.333333 0 0 0-85.333333 85.333333V725.333333a85.333333 85.333333 0 0 0 85.333333 85.333334zM213.333333 341.33333300000004h341.333334a42.666667 42.666667 0 0 0 0-85.333333H213.333333a42.666667 42.666667 0 0 0 0 85.333333zM213.333333 170.66666699999996h85.333334a42.666667 42.666667 0 0 0 0-85.333334H213.333333a42.666667 42.666667 0 0 0 0 85.333334zM725.333333 341.33333300000004h85.333334a42.666667 42.666667 0 0 0 0-85.333333h-85.333334a42.666667 42.666667 0 0 0 0 85.333333z"  horiz-adv-x="1024" />

    
    <glyph glyph-name="-quanping" unicode="&#59175;" d="M682.666667 853.333333h256a42.666667 42.666667 0 0 0 0-85.333333h-256a42.666667 42.666667 0 0 0 0 85.333333zM682.666667 0h256a42.666667 42.666667 0 0 0 0-85.333333h-256a42.666667 42.666667 0 0 0 0 85.333333zM85.333333 0h256a42.666667 42.666667 0 0 0 0-85.333333H85.333333a42.666667 42.666667 0 0 0 0 85.333333zM115.498667 44.799999999999955l181.034666 181.034667a42.666667 42.666667 0 1 0 60.330667-60.330667l-181.034667-181.034667a42.666667 42.666667 0 0 0-60.330666 60.330667zM670.165333 599.4666669999999l181.034667 181.034666a42.666667 42.666667 0 1 0 60.330667-60.330666l-181.034667-181.034667a42.666667 42.666667 0 0 0-60.330667 60.330667zM85.333333 853.333333h256a42.666667 42.666667 0 1 0 0-85.333333H85.333333a42.666667 42.666667 0 1 0 0 85.333333zM981.333333 810.666667v-256a42.666667 42.666667 0 0 0-85.333333 0V810.666667a42.666667 42.666667 0 0 0 85.333333 0zM981.333333 213.33333300000004v-256a42.666667 42.666667 0 1 0-85.333333 0v256a42.666667 42.666667 0 0 0 85.333333 0zM128 810.666667v-256a42.666667 42.666667 0 1 0-85.333333 0V810.666667a42.666667 42.666667 0 1 0 85.333333 0zM128 213.33333300000004v-256a42.666667 42.666667 0 1 0-85.333333 0v256a42.666667 42.666667 0 0 0 85.333333 0z"  horiz-adv-x="1024" />

    
    <glyph glyph-name="-tuichuquanping" unicode="&#59177;" d="M682.666667 0h256a42.666667 42.666667 0 0 0 0-85.333333h-256a42.666667 42.666667 0 0 0 0 85.333333zM85.333333 853.333333h256a42.666667 42.666667 0 1 0 0-85.333333H85.333333a42.666667 42.666667 0 1 0 0 85.333333zM981.333333 213.33333300000004v-256a42.666667 42.666667 0 0 0-85.333333 0v256a42.666667 42.666667 0 0 0 85.333333 0zM128 810.666667v-256a42.666667 42.666667 0 1 0-85.333333 0V810.666667a42.666667 42.666667 0 0 0 85.333333 0zM170.666667 341.33333300000004h256a42.666667 42.666667 0 0 0 0-85.333333H170.666667a42.666667 42.666667 0 0 0 0 85.333333zM597.333333 512h256a42.666667 42.666667 0 0 0 0-85.333333h-256a42.666667 42.666667 0 0 0 0 85.333333zM72.832 20.351999999999975l290.816 290.816a42.666667 42.666667 0 1 0 60.330667-60.330667l-290.816-290.816a42.666667 42.666667 0 1 0-60.330667 60.330667zM573.952 503.253333L891.733333 821.034667a42.666667 42.666667 0 0 0 60.330667-60.330667l-317.781333-317.781333a42.666667 42.666667 0 1 0-60.330667 60.330666zM469.333333 298.66666699999996v-256a42.666667 42.666667 0 0 0-85.333333 0v256a42.666667 42.666667 0 0 0 85.333333 0zM640 725.333333v-256a42.666667 42.666667 0 0 0-85.333333 0V725.333333a42.666667 42.666667 0 1 0 85.333333 0z"  horiz-adv-x="1024" />

    
    <glyph glyph-name="-shezhi" unicode="&#59187;" d="M938.446562 384.021324c0 13.647078-0.852942 28.061805-2.644122 43.628003l-73.566282 24.564742-13.220607 41.111823a344.460789 344.460789 0 0 1-21.494149 51.901545l-19.788263 38.467703 34.80005 69.472158a397.044688 397.044688 0 0 1-29.554455 33.17946 351.710799 351.710799 0 0 1-31.857398 28.530923l-69.088335-34.544167-38.211819 19.191204a381.777019 381.777019 0 0 1-52.797135 21.792678l-40.941235 13.348549-24.351506 73.438341A388.174087 388.174087 0 0 1 511.975361 810.70576c-13.647078 0-28.061805-0.852942-43.585357-2.558827l-24.522094-73.864812-41.367706-13.135313c-17.229437-5.501478-34.586814-12.666195-51.858898-21.494149l-38.425056-19.617675-69.130981 34.629461a384.378493 384.378493 0 0 1-61.539794-61.539794l34.544167-69.130981-19.745617-38.425056a349.32256 349.32256 0 0 1-21.536795-52.029486l-13.220608-40.983882-73.523635-24.564742A387.662321 387.662321 0 0 1 85.50416 384.234559c0-13.647078 0.852942-28.104452 2.601474-43.713298l73.438341-24.351505 13.305902-41.111824c5.757361-17.826496 13.007372-35.354463 21.62209-52.242722l19.489733-38.382408-34.629461-69.088335c18.466203-22.602974 39.064762-43.24418 61.667736-61.625088l69.00304 34.714755 38.382408-19.532381c16.376494-8.316188 34.117696-15.608846 52.626546-21.664737l40.898588-13.348548 24.4368-73.438341c15.822082-1.833826 30.023573-2.686769 43.670651-2.686769 13.817667 0 27.891217 0.852942 43.457415 2.558828l24.4368 73.182458 41.02653 13.220607a354.610803 354.610803 0 0 1 52.200075 21.664737l38.382408 19.617675 69.173628-34.629461c22.602974 18.423556 43.372121 39.150056 61.838325 61.667735l-34.672109 69.258923 19.788264 38.51035c8.44413 16.461788 15.69414 33.989755 21.536795 52.029486l13.220607 40.941235 73.651577 24.650036c1.791179 15.39561 2.558827 29.725043 2.345591 43.585357z m78.428053-81.029529l-4.264712-26.910332-82.308941-27.507393c-7.164716-22.176502-16.120611-43.969181-26.782392-64.738328l38.808879-77.532464-15.950022-22.176503a524.431636 524.431636 0 0 0-114.806048-114.592811l-22.091208-15.950023-77.575111 38.808879c-20.897089-10.66178-42.519179-19.617675-64.738329-26.782391l-27.422098-82.053059-26.697097-4.136771c-29.725043-4.691183-55.441256-6.951481-81.029528-6.951481-24.905918 0-50.750073 2.260297-81.15747 7.079422l-26.910332 4.264712-27.422099 82.308942a455.556537 455.556537 0 0 0-64.738328 26.739744l-77.44717-38.93682-22.133855 15.950023a514.324268 514.324268 0 0 0-114.720753 114.550164l-15.907376 22.176503 38.808879 77.575111a445.022698 445.022698 0 0 0-26.697097 64.610387l-82.266294 27.294157-4.264712 26.910332A515.646329 515.646329 0 0 0 0.20992 384.234559c0 25.161801 2.260297 51.603015 6.951481 81.114823l4.264712 26.952979 82.308941 27.464746c7.164716 22.21915 16.120611 44.011828 26.782392 64.738328L81.921802 661.867311l15.950023 22.005914c16.632377 23.114739 33.776519 43.414768 52.413311 62.136854 17.400025 17.485319 37.700054 34.672109 62.051559 52.541252l22.133856 15.907375 77.404522-38.808879c20.897089 10.66178 42.561826 19.745617 64.780976 26.825039l27.379451 82.308941 26.95298 4.264712C460.500287 893.78235 486.984148 896 511.975361 896s51.517721-2.260297 81.157469-6.951481l26.910333-4.264712 27.379451-82.351588c22.005914-7.207363 43.670651-16.205906 64.653034-26.697098l77.575112 38.80888 22.091208-15.950023c24.13827-17.400025 44.480946-34.544167 62.094207-52.498605 18.295615-18.295615 35.354463-38.723585 52.41331-62.179501l15.950023-22.176503-38.851526-77.575111c10.66178-20.7265 19.617675-42.391237 26.825038-64.738328l82.308942-27.464746 4.264712-26.952979c4.691183-29.511807 6.908833-55.995669 6.908833-81.029529 0.341177-24.73533-1.91912-51.347133-6.823539-80.986881zM511.975361 256.293199a127.94136 127.94136 0 1 1 0 255.88272 127.94136 127.94136 0 0 1 0-255.88272z m0-85.29424a213.2356 213.2356 0 1 0 0 426.471201 213.2356 213.2356 0 0 0 0-426.471201z"  horiz-adv-x="1024" />

    
    <glyph glyph-name="-lianjie" unicode="&#59195;" d="M513.96227 601.665141l164.293931 164.29393a152.476372 152.476372 0 1 0 215.659782-215.659782l-164.293931-164.29393a42.662667 42.662667 0 0 1 60.325011-60.325012l164.293931 164.293931a237.801706 237.801706 0 0 1-336.309805 336.309805l-164.29393-164.293931a42.662667 42.662667 0 1 1 60.325011-60.325011zM509.951979 166.335286l-164.293931-164.293931a152.476372 152.476372 0 1 0-215.659782 215.659782l164.293931 164.293931a42.662667 42.662667 0 0 1-60.325011 60.325011l-164.293931-164.293931a237.801706 237.801706 0 0 1 336.309805-336.309804l164.29393 164.293931a42.662667 42.662667 0 0 1-60.325011 60.325011zM524.457286 456.825386l-85.325334-85.325334a42.662667 42.662667 0 0 1 60.325011-60.325011l85.325334 85.325334a42.662667 42.662667 0 0 1-60.325011 60.325011z"  horiz-adv-x="1024" />

    
    <glyph glyph-name="-xinzengyonghu" unicode="&#59201;" d="M469.333333 384a213.333333 213.333333 0 1 1 0 426.666667 213.333333 213.333333 0 0 1 0-426.666667z m-164.437333-36.053333a298.666667 298.666667 0 1 0 328.789333 0 415.189333 415.189333 0 0 0 77.482667-46.506667 42.666667 42.666667 0 0 0-51.541333-68.010667C603.733333 275.797333 538.026667 298.66666699999996 469.333333 298.66666699999996c-187.434667 0-341.333333-170.965333-341.333333-384a42.666667 42.666667 0 0 0-85.333333 0c0 194.56 107.818667 362.368 262.229333 433.28zM682.666667 85.33333300000004h256a42.666667 42.666667 0 0 0 0-85.333333h-256a42.666667 42.666667 0 0 0 0 85.333333zM853.333333 170.66666699999996v-256a42.666667 42.666667 0 0 0-85.333333 0v256a42.666667 42.666667 0 0 0 85.333333 0z"  horiz-adv-x="1024" />

    
    <glyph glyph-name="-tijiao" unicode="&#59241;" d="M42.666667 768h682.666666a42.666667 42.666667 0 0 0 0-85.333333H42.666667a42.666667 42.666667 0 1 0 0 85.333333zM42.666667 512h682.666666a42.666667 42.666667 0 0 0 0-85.333333H42.666667a42.666667 42.666667 0 1 0 0 85.333333zM42.666667 256h341.333333a42.666667 42.666667 0 0 0 0-85.333333H42.666667a42.666667 42.666667 0 0 0 0 85.333333zM725.333333 61.09866699999998l-97.194666 139.648a43.093333 43.093333 0 0 1-60.885334 0 42.922667 42.922667 0 0 1 0-60.757334l127.658667-170.069333a42.922667 42.922667 0 0 1 60.842667 0l255.658666 340.736a42.922667 42.922667 0 0 1 0 60.757333 43.093333 43.093333 0 0 1-60.885333 0L725.333333 61.09866699999998z"  horiz-adv-x="1024" />

    
    <glyph glyph-name="-jichu-tubiao-xianxing-zhediezhankai" unicode="&#59103;" d="M85.333333 810.666667h853.333334a42.666667 42.666667 0 0 0 42.666666-42.666667 42.666667 42.666667 0 0 0-42.666666-42.666667H85.333333a42.666667 42.666667 0 0 0-42.666666 42.666667 42.666667 42.666667 0 0 0 42.666666 42.666667zM85.333333 554.666667h512a42.666667 42.666667 0 0 0 42.666667-42.666667 42.666667 42.666667 0 0 0-42.666667-42.666667H85.333333a42.666667 42.666667 0 0 0-42.666666 42.666667 42.666667 42.666667 0 0 0 42.666666 42.666667zM85.333333 298.666667h512a42.666667 42.666667 0 0 0 42.666667-42.666667 42.666667 42.666667 0 0 0-42.666667-42.666667H85.333333a42.666667 42.666667 0 0 0-42.666666 42.666667 42.666667 42.666667 0 0 0 42.666666 42.666667zM85.333333 42.666667h853.333334a42.666667 42.666667 0 0 0 42.666666-42.666667 42.666667 42.666667 0 0 0-42.666666-42.666667H85.333333a42.666667 42.666667 0 0 0-42.666666 42.666667 42.666667 42.666667 0 0 0 42.666666 42.666667zM928 419.413333L791.466667 512a42.666667 42.666667 0 0 1-58.88-11.52 42.666667 42.666667 0 0 1-7.253334-23.893333v-181.76a42.666667 42.666667 0 0 1 42.666667-42.666667 42.666667 42.666667 0 0 1 23.466667 7.253333l136.533333 90.88a42.666667 42.666667 0 0 1 10.666667 57.173334 39.68 39.68 0 0 1-10.666667 11.946666z"  horiz-adv-x="1024" />

    
    <glyph glyph-name="-jichu-tubiao-xianxing-zhedieshouqi" unicode="&#59104;" d="M85.333333 810.666667h853.333334a42.666667 42.666667 0 0 0 42.666666-42.666667 42.666667 42.666667 0 0 0-42.666666-42.666667H85.333333a42.666667 42.666667 0 0 0-42.666666 42.666667 42.666667 42.666667 0 0 0 42.666666 42.666667zM426.666667 554.666667h512a42.666667 42.666667 0 0 0 42.666666-42.666667 42.666667 42.666667 0 0 0-42.666666-42.666667H426.666667a42.666667 42.666667 0 0 0-42.666667 42.666667 42.666667 42.666667 0 0 0 42.666667 42.666667zM426.666667 298.666667h512a42.666667 42.666667 0 0 0 42.666666-42.666667 42.666667 42.666667 0 0 0-42.666666-42.666667H426.666667a42.666667 42.666667 0 0 0-42.666667 42.666667 42.666667 42.666667 0 0 0 42.666667 42.666667zM85.333333 42.666667h853.333334a42.666667 42.666667 0 0 0 42.666666-42.666667 42.666667 42.666667 0 0 0-42.666666-42.666667H85.333333a42.666667 42.666667 0 0 0-42.666666 42.666667 42.666667 42.666667 0 0 0 42.666666 42.666667zM96 419.413333L232.533333 512a42.666667 42.666667 0 0 0 58.88-11.52 42.666667 42.666667 0 0 0 7.253334-25.6v-181.76a42.666667 42.666667 0 0 0-42.666667-42.666667 42.666667 42.666667 0 0 0-23.466667 5.546667l-136.533333 90.88A42.666667 42.666667 0 0 0 85.333333 407.466667a39.68 39.68 0 0 0 10.666667 11.946666z"  horiz-adv-x="1024" />

    
    <glyph glyph-name="-geelylogo" unicode="&#59145;" d="M1251.874133 855.517867H225.28A225.4848 225.4848 0 0 1 0.068267 629.76v-520.192a225.4848 225.4848 0 0 1 225.28-225.621333h1033.898666V461.824H374.237867a7.3728 7.3728 0 0 1-7.3728-7.441067v-169.301333c0-4.096 3.2768-7.3728 7.3728-7.3728h653.312v-209.578667H276.753067a45.056 45.056 0 0 0-45.056 45.056V626.346667a45.056 45.056 0 0 0 45.056 45.124266h975.121066c4.096 0 7.3728 3.345067 7.3728 7.441067V848.145067a7.3728 7.3728 0 0 1-7.3728 7.3728M2712.849067 855.517867H1716.906667A225.553067 225.553067 0 0 1 1491.626667 629.76v-520.192a225.4848 225.4848 0 0 1 225.28-225.621333H2712.917333c4.096 0 7.3728 3.2768 7.3728 7.304533v169.301333a7.441067 7.441067 0 0 1-7.3728 7.509334H1768.379733a45.056 45.056 0 0 0-45.056 45.056v164.522666h937.301334c4.096 0 7.3728 3.2768 7.3728 7.3728v169.301334a7.441067 7.441067 0 0 1-7.3728 7.441066h-937.301334V626.2783999999999a45.056 45.056 0 0 0 45.056 45.124267H2712.917333c4.096 0 7.3728 3.345067 7.3728 7.441066V848.145067a7.3728 7.3728 0 0 1-7.3728 7.3728M5458.7392 68.061867h-806.912a45.056 45.056 0 0 0-45.056 45.192533V849.0325330000001a7.3728 7.3728 0 0 1-7.3728 7.441067h-216.951467a7.3728 7.3728 0 0 1-7.3728-7.441067v-739.328a225.553067 225.553067 0 0 1 225.416534-225.6896h858.248533c4.096 0 7.3728 3.2768 7.3728 7.304534v169.3696a7.3728 7.3728 0 0 1-7.3728 7.3728M4151.569067 855.517867H3155.694933A225.553067 225.553067 0 0 1 2930.346667 629.76v-520.192a225.4848 225.4848 0 0 1 225.28-225.621333h995.9424c4.096 0 7.3728 3.2768 7.3728 7.304533v169.301333a7.441067 7.441067 0 0 1-7.3728 7.509334H3207.099733a45.056 45.056 0 0 0-45.056 45.056v164.522666h937.301334c4.096 0 7.3728 3.2768 7.3728 7.3728v169.301334a7.441067 7.441067 0 0 1-7.3728 7.441066h-937.301334V626.2783999999999a45.056 45.056 0 0 0 45.056 45.124267h944.469334c4.096 0 7.3728 3.345067 7.3728 7.441066V848.145067a7.3728 7.3728 0 0 1-7.3728 7.3728M6248.721067 856.4736a16.520533 16.520533 0 0 1-11.6736-4.9152l-445.0304-421.888L5347.1232 851.626667A16.657067 16.657067 0 0 1 5335.313067 856.4736H5067.5712A4.232533 4.232533 0 0 1 5064.567467 849.237333l611.669333-588.731733v-369.117867c0-4.096 3.2768-7.441067 7.3728-7.441066h216.951467c4.096 0 7.3728 3.2768 7.3728 7.441066V260.50559999999996L6519.6032 849.237333c2.594133 2.730667 0.682667 7.236267-3.003733 7.236267H6248.721067z"  horiz-adv-x="6553" />

    
    <glyph glyph-name="-wenbenwenjian" unicode="&#59209;" d="M938.666667-42.66666699999996c0-23.552-9.557333-44.885333-25.002667-60.330666A85.077333 85.077333 0 0 0 853.333333-128H170.666667a85.077333 85.077333 0 0 0-60.330667 25.002667A85.077333 85.077333 0 0 0 85.333333-42.66666699999996V810.666667c0 23.552 9.557333 44.885333 25.002667 60.330666A85.077333 85.077333 0 0 0 170.666667 896h479.786666l288.298667-272.64L938.666667-42.66666699999996zM796.885333 640L640 788.181333V640h156.885333zM853.333333-42.66666699999996V554.666667h-256a42.538667 42.538667 0 0 0-42.666666 42.666666V810.666667H170.666667v-853.333334h682.666666zM298.666667 469.333333h170.666666a42.666667 42.666667 0 1 0 0-85.333333H298.666667a42.666667 42.666667 0 1 0 0 85.333333zM298.666667 298.66666699999996h426.666666a42.666667 42.666667 0 0 0 0-85.333334H298.666667a42.666667 42.666667 0 1 0 0 85.333334zM298.666667 128h426.666666a42.666667 42.666667 0 0 0 0-85.333333H298.666667a42.666667 42.666667 0 1 0 0 85.333333z"  horiz-adv-x="1024" />

    
    <glyph glyph-name="-yun" unicode="&#59232;" d="M768.042667 85.33333300000004H227.882667l-6.826667 0.597334a149.376 149.376 0 0 0-26.026667 292.778666l56.490667 15.488 5.802667 58.282667A256 256 0 0 0 512.042667 682.666667c110.506667 0 205.909333-70.954667 241.066666-172.032a254.549333 254.549333 0 0 1-154.581333-62.976 42.666667 42.666667 0 1 1 56.576-63.872A169.898667 169.898667 0 0 0 768.256 426.666667c21.162667 0 41.258667-4.352 59.946667-11.392 3.754667-1.450667 7.509333-2.858667 11.136-4.565334 5.973333-2.730667 11.605333-5.930667 17.152-9.301333 3.114667-1.92 6.4-3.584 9.386666-5.674667 7.381333-5.205333 14.336-10.965333 20.821334-17.194666 2.645333-2.602667 4.949333-5.461333 7.466666-8.192 4.522667-4.992 8.96-10.112 12.885334-15.616 2.688-3.797333 4.992-7.850667 7.338666-11.861334 2.688-4.48 5.248-9.045333 7.509334-13.781333 2.133333-4.48 4.053333-9.088 5.802666-13.781333 1.792-4.821333 3.242667-9.813333 4.608-14.848 1.322667-4.778667 2.688-9.557333 3.584-14.506667a174.933333 174.933333 0 0 0 2.005334-19.754667c0.170667-3.413333 0.853333-6.741333 0.853333-10.197333a170.666667 170.666667 0 0 0-170.666667-170.666667M1024.256 256c0 13.824-1.408 27.264-3.541333 40.490667-0.128 0.853333-0.213333 1.749333-0.384 2.602666a251.349333 251.349333 0 0 1-9.557334 38.4l-0.298666 0.853334a254.506667 254.506667 0 0 1-36.053334 68.906666 256.896 256.896 0 0 1-55.765333 55.594667l-2.688 2.005333a253.013333 253.013333 0 0 1-31.488 19.029334c-1.408 0.725333-2.858667 1.365333-4.266667 2.048a250.453333 250.453333 0 0 1-34.773333 14.165333 341.418667 341.418667 0 0 1-673.024-39.125333A234.794667 234.794667 0 0 1 0.042667 234.66666699999996c0-122.410667 93.738667-222.933333 213.333333-234.666667h554.666667a255.914667 255.914667 0 0 1 255.914666 254.677333c0.042667 0.469333 0.298667 0.853333 0.298667 1.322667"  horiz-adv-x="1024" />

    
    <glyph glyph-name="-erweima" unicode="&#59235;" d="M128 768v-256h256V768H128z m-21.333333 85.333333h298.666666A64 64 0 0 0 469.333333 789.333333v-298.666666A64 64 0 0 0 405.333333 426.666667h-298.666666A64 64 0 0 0 42.666667 490.666667v298.666666A64 64 0 0 0 106.666667 853.333333zM128 0h256v256H128v-256z m-21.333333 341.333333h298.666666a64 64 0 0 0 64-64v-298.666666A64 64 0 0 0 405.333333-85.33333300000004h-298.666666A64 64 0 0 0 42.666667-21.33333300000004v298.666666A64 64 0 0 0 106.666667 341.33333300000004zM640 512h256V768h-256v-256z m-21.333333 341.333333h298.666666A64 64 0 0 0 981.333333 789.333333v-298.666666a64 64 0 0 0-64-64h-298.666666A64 64 0 0 0 554.666667 490.666667v298.666666A64 64 0 0 0 618.666667 853.333333zM213.333333 682.666667h85.333334v-85.333334H213.333333zM725.333333 682.666667h85.333334v-85.333334h-85.333334zM213.333333 170.66666699999996h85.333334v-85.333334H213.333333zM597.333333 341.33333300000004a42.666667 42.666667 0 0 0 42.666667-42.666666v-341.333334a42.666667 42.666667 0 0 0-85.333333 0v341.333334a42.666667 42.666667 0 0 0 42.666666 42.666666zM768 341.33333300000004a42.666667 42.666667 0 0 0 42.666667-42.666666v-170.666667a42.666667 42.666667 0 0 0-85.333334 0v170.666667a42.666667 42.666667 0 0 0 42.666667 42.666666zM938.666667 341.33333300000004a42.666667 42.666667 0 0 0 42.666666-42.666666v-170.666667a42.666667 42.666667 0 0 0-85.333333 0v170.666667a42.666667 42.666667 0 0 0 42.666667 42.666666zM768 170.66666699999996h170.666667a42.666667 42.666667 0 0 0 0-85.333334h-170.666667a42.666667 42.666667 0 0 0 0 85.333334zM597.333333 341.33333300000004h170.666667a42.666667 42.666667 0 0 0 0-85.333333h-170.666667a42.666667 42.666667 0 0 0 0 85.333333zM768 0h170.666667a42.666667 42.666667 0 0 0 0-85.333333h-170.666667a42.666667 42.666667 0 0 0 0 85.333333z"  horiz-adv-x="1024" />

    
    <glyph glyph-name="-jiagou" unicode="&#59243;" d="M384 810.666667v-256h256V810.666667H384z m0 85.333333h256a85.333333 85.333333 0 0 0 85.333333-85.333333v-256a85.333333 85.333333 0 0 0-85.333333-85.333334H384a85.333333 85.333333 0 0 0-85.333333 85.333334V810.666667a85.333333 85.333333 0 0 0 85.333333 85.333333zM640 213.333333v-256h256v256h-256z m0 85.333334h256a85.333333 85.333333 0 0 0 85.333333-85.333334v-256a85.333333 85.333333 0 0 0-85.333333-85.333333h-256a85.333333 85.333333 0 0 0-85.333333 85.333333v256a85.333333 85.333333 0 0 0 85.333333 85.333334zM128 213.333333v-256h256v256H128z m0 85.333334h256a85.333333 85.333333 0 0 0 85.333333-85.333334v-256a85.333333 85.333333 0 0 0-85.333333-85.333333H128a85.333333 85.333333 0 0 0-85.333333 85.333333v256a85.333333 85.333333 0 0 0 85.333333 85.333334zM725.333333 213.333333v128H298.666667v-128H213.333333v128a85.333333 85.333333 0 0 0 85.333334 85.333334h426.666666a85.333333 85.333333 0 0 0 85.333334-85.333334v-128h-85.333334z m85.333334 0h-85.333334v128H298.666667v-128H213.333333v128a85.333333 85.333333 0 0 0 85.333334 85.333334h426.666666a85.333333 85.333333 0 0 0 85.333334-85.333334v-128zM469.333333 512h85.333334v-128h-85.333334z"  horiz-adv-x="1024" />

    
    <glyph glyph-name="-liebiaozhanshi" unicode="&#59247;" d="M85.333333 768v-256h256V768H85.333333z m-21.333333 85.333333h298.666667A64 64 0 0 0 426.666667 789.333333v-298.666666A64 64 0 0 0 362.666667 426.666667h-298.666667A64 64 0 0 0 0 490.666667v298.666666A64 64 0 0 0 64 853.333333zM85.333333 0h256v256H85.333333v-256z m-21.333333 341.333333h298.666667a64 64 0 0 0 64-64v-298.666666A64 64 0 0 0 362.666667-85.33333300000004h-298.666667A64 64 0 0 0 0-21.33333300000004v298.666666A64 64 0 0 0 64 341.33333300000004zM554.666667 725.333333h426.666666a42.666667 42.666667 0 0 0 0-85.333333H554.666667a42.666667 42.666667 0 0 0 0 85.333333zM554.666667 426.666667h426.666666a42.666667 42.666667 0 0 0 0-85.333334H554.666667a42.666667 42.666667 0 0 0 0 85.333334zM554.666667 128h426.666666a42.666667 42.666667 0 0 0 0-85.333333H554.666667a42.666667 42.666667 0 0 0 0 85.333333z"  horiz-adv-x="1024" />

    
    <glyph glyph-name="-yingyong" unicode="&#59252;" d="M128 768v-256h256V768H128z m-21.333333 85.333333h298.666666A64 64 0 0 0 469.333333 789.333333v-298.666666A64 64 0 0 0 405.333333 426.666667h-298.666666A64 64 0 0 0 42.666667 490.666667v298.666666A64 64 0 0 0 106.666667 853.333333zM128 0h256v256H128v-256z m-21.333333 341.333333h298.666666a64 64 0 0 0 64-64v-298.666666A64 64 0 0 0 405.333333-85.33333300000004h-298.666666A64 64 0 0 0 42.666667-21.33333300000004v298.666666A64 64 0 0 0 106.666667 341.33333300000004zM640 512h256V768h-256v-256z m-21.333333 341.333333h298.666666A64 64 0 0 0 981.333333 789.333333v-298.666666a64 64 0 0 0-64-64h-298.666666A64 64 0 0 0 554.666667 490.666667v298.666666A64 64 0 0 0 618.666667 853.333333zM640 0h256v256h-256v-256z m-21.333333 341.333333h298.666666a64 64 0 0 0 64-64v-298.666666a64 64 0 0 0-64-64h-298.666666a64 64 0 0 0-64 64v298.666666a64 64 0 0 0 64 64z"  horiz-adv-x="1024" />

    
    <glyph glyph-name="-fuwulei" unicode="&#59139;" d="M891.733333 345.6c-4.266667 4.266667-12.8 8.533333-21.333333 8.533333h-42.666667c-17.066667 0-29.866667-12.8-29.866666-29.866666 0-17.066667 12.8-29.866667 29.866666-29.866667h29.866667l115.2-115.2c21.333333-21.333333 51.2-4.266667 51.2 21.333333V695.466667C1024 759.466667 972.8 810.666667 908.8 810.666667H456.533333C392.533333 810.666667 341.333333 759.466667 341.333333 695.466667v-64c0-17.066667 12.8-29.866667 29.866667-29.866667 17.066667 0 29.866667 12.8 29.866667 29.866667V695.466667c0 29.866667 21.333333 51.2 51.2 51.2h456.533333c29.866667 0 51.2-21.333333 51.2-51.2v-422.4l-68.266667 72.533333zM640 554.666667c46.933333 0 85.333333-38.4 85.333333-89.6V170.66666699999996c0-46.933333-38.4-89.6-85.333333-89.6H213.333333L34.133333-38.39999999999998c-8.533333-4.266667-21.333333-4.266667-29.866666 8.533333-4.266667 0-4.266667 4.266667-4.266667 8.533334V465.066667C0 516.266667 38.4 554.666667 85.333333 554.666667h554.666667zM192 384c-34.133333 0-64-29.866667-64-64S157.866667 256 192 256 256 285.866667 256 320 226.133333 384 192 384z m170.666667 0c-34.133333 0-64-29.866667-64-64S328.533333 256 362.666667 256s64 29.866667 64 64S396.8 384 362.666667 384z m170.666666 0c-34.133333 0-64-29.866667-64-64s29.866667-64 64-64 64 29.866667 64 64-29.866667 64-64 64z"  horiz-adv-x="1024" />

    
    <glyph glyph-name="-guangxuanlei" unicode="&#59140;" d="M512 341.33333300000004c59.733333 0 110.933333-51.2 110.933333-110.933333v-17.066667l-46.933333-290.133333c-4.266667-29.866667-34.133333-51.2-64-51.2s-59.733333 21.333333-64 55.466667l-42.666667 285.866666c-8.533333 59.733333 29.866667 115.2 89.6 123.733334 4.266667 4.266667 12.8 4.266667 17.066667 4.266666z m0 554.666667c234.666667 0 426.666667-192 426.666667-426.666667 0-162.133333-89.6-307.2-234.666667-379.733333-17.066667-8.533333-34.133333 0-42.666667 12.8-8.533333 17.066667 0 34.133333 12.8 42.666667 119.466667 59.733333 196.266667 183.466667 196.266667 320 0 200.533333-162.133333 362.666667-362.666667 362.666666S149.333333 669.866667 149.333333 469.333333c0-136.533333 76.8-260.266667 196.266667-320 17.066667-8.533333 21.333333-29.866667 12.8-42.666666-8.533333-17.066667-29.866667-21.333333-42.666667-12.8C174.933333 162.133333 85.333333 307.20000000000005 85.333333 469.333333 85.333333 704 277.333333 896 512 896z m0-170.666667c140.8 0 256-115.2 256-260.266666 0-55.466667-17.066667-110.933333-51.2-153.6-8.533333-12.8-29.866667-17.066667-42.666667-8.533334s-17.066667 29.866667-4.266666 42.666667c25.6 34.133333 38.4 72.533333 38.4 119.466667 0 110.933333-85.333333 196.266667-196.266667 196.266666s-196.266667-89.6-196.266667-196.266666c0-42.666667 12.8-85.333333 38.4-119.466667 8.533333-12.8 8.533333-34.133333-4.266666-42.666667-12.8-8.533333-34.133333-8.533333-42.666667 8.533334-34.133333 42.666667-51.2 98.133333-51.2 153.6C256 610.133333 371.2 725.333333 512 725.333333z m0-149.333333c46.933333 0 85.333333-38.4 85.333333-85.333333s-38.4-85.333333-85.333333-85.333334-85.333333 38.4-85.333333 85.333334 38.4 85.333333 85.333333 85.333333z"  horiz-adv-x="1024" />

    
    <glyph glyph-name="-wuliulei" unicode="&#59141;" d="M640 810.666667c46.933333 0 85.333333-38.4 85.333333-85.333334v-128h8.533334c162.133333-4.266667 290.133333-136.533333 290.133333-302.933333V85.33333300000004h-170.666667c-8.533333-72.533333-72.533333-128-149.333333-128s-136.533333 55.466667-149.333333 128H384c-8.533333-72.533333-72.533333-128-149.333333-128S98.133333 12.799999999999955 85.333333 85.33333300000004c-46.933333 0-85.333333 38.4-85.333333 85.333334V725.333333c0 46.933333 38.4 85.333333 85.333333 85.333334h554.666667z m0-64H85.333333c-12.8 0-21.333333-8.533333-21.333333-21.333334v-554.666666c0-12.8 8.533333-21.333333 21.333333-21.333334h4.266667c21.333333 59.733333 76.8 106.666667 145.066667 106.666667s123.733333-46.933333 145.066666-106.666667h183.466667c12.8 46.933333 51.2 85.333333 102.4 102.4V725.333333c-4.266667 12.8-12.8 21.333333-25.6 21.333334z m85.333333-213.333334V256c59.733333-8.533333 106.666667-51.2 123.733334-106.666667h110.933333v145.066667c0 132.266667-106.666667 238.933333-234.666667 238.933333z"  horiz-adv-x="1024" />

    
    <glyph glyph-name="-yanfalei" unicode="&#59142;" d="M981.333333 810.666667c25.6 0 42.666667-21.333333 42.666667-42.666667v-768c0-25.6-21.333333-42.666667-42.666667-42.666667H42.666667c-25.6 0-42.666667 21.333333-42.666667 42.666667V768c0 25.6 21.333333 42.666667 42.666667 42.666667h938.666666z m-21.333333-256h-896v-533.333334h896V554.666667zM597.333333 469.333333l-85.333333-256h-42.666667l85.333334 256h42.666666z m-256-85.333333v-38.4l-110.933333-42.666667L337.066667 256v-38.4l-170.666667 68.266667v42.666666L341.333333 384z m341.333334 0l170.666666-64v-42.666667l-170.666666-68.266666v38.4l106.666666 46.933333-110.933333 42.666667L682.666667 384zM128 725.333333c-12.8 0-21.333333-4.266667-29.866667-12.8-8.533333-8.533333-12.8-17.066667-12.8-29.866666s4.266667-21.333333 12.8-29.866667c8.533333-8.533333 17.066667-12.8 29.866667-12.8 12.8 0 21.333333 4.266667 29.866667 12.8 8.533333 8.533333 12.8 17.066667 12.8 29.866667s-4.266667 21.333333-12.8 29.866666C149.333333 721.066667 140.8 725.333333 128 725.333333z m128 0c-12.8 0-21.333333-4.266667-29.866667-12.8-8.533333-8.533333-12.8-17.066667-12.8-29.866666s4.266667-21.333333 12.8-29.866667c8.533333-8.533333 17.066667-12.8 29.866667-12.8s21.333333 4.266667 29.866667 12.8c8.533333 8.533333 12.8 17.066667 12.8 29.866667s-4.266667 21.333333-12.8 29.866666C277.333333 721.066667 268.8 725.333333 256 725.333333z m128 0c-25.6 0-42.666667-17.066667-42.666667-42.666666s17.066667-42.666667 42.666667-42.666667c21.333333 0 38.4 17.066667 42.666667 38.4v8.533333c-4.266667 21.333333-21.333333 38.4-42.666667 38.4z"  horiz-adv-x="1024" />

    
    <glyph glyph-name="-jijianlei" unicode="&#59143;" d="M469.403245-128v42.596755c0 25.558053 21.298377 42.596755 42.596755 42.596754h85.193509V596.1448310000001H247.900121v-340.774038c0-17.038702-12.779026-34.077404-34.077404-34.077404-17.038702 0-29.817728 12.779026-29.817729 25.558053V596.1448310000001H120.109856c-8.519351 0-17.038702 4.259675-21.298377 8.519351-4.259675 12.779026-4.259675 25.558053 8.519351 34.077403l51.116106 34.077404s4.259675 0 4.259675 4.259676L171.225962 681.33834 605.71286 890.062438c21.298377 8.519351 42.596755 8.519351 59.635457-4.259675l4.259676-4.259676 242.801502-204.464422c17.038702-8.519351 25.558053-21.298377 25.558052-38.33708 0-25.558053-17.038702-42.596755-42.596754-42.596754h-170.387019v-638.951322h85.193509c25.558053 0 42.596755-21.298377 42.596755-42.596754v-42.596755h-383.370793z m-170.387019 212.983774c25.558053 0 42.596755-21.298377 42.596755-42.596755v-127.790264c0-25.558053-21.298377-42.596755-42.596755-42.596755H128.629207c-25.558053 0-42.596755 21.298377-42.596754 42.596755v127.790264c0 25.558053 21.298377 42.596755 42.596754 42.596755h170.387019z m327.995012 766.741585L273.458173 681.33834h570.796514l-195.945072 166.127344c-8.519351 4.259675-12.779026 4.259675-21.298377 4.259675z"  horiz-adv-x="1068" />

    
    <glyph glyph-name="-xinxihualei" unicode="&#59144;" d="M494.933333-42.66666699999996c-106.666667 4.266667-204.8 34.133333-294.4 98.133334l-85.333333-68.266667c-4.266667-4.266667-8.533333-4.266667-12.8-4.266667-8.533333 0-17.066667 8.533333-17.066667 17.066667v277.333333c0 12.8 8.533333 21.333333 17.066667 21.333334h294.4c4.266667 0 8.533333 0 8.533333-4.266667 8.533333-4.266667 8.533333-17.066667 4.266667-25.6-34.133333-51.2-64-93.866667-98.133333-128 34.133333-59.733333 136.533333-132.266667 256-115.2 170.666667 29.866667 302.933333 179.2 302.933333 358.4 0 34.133333-4.266667 68.266667-12.8 98.133333-12.8-8.533333-29.866667-12.8-46.933333-21.333333 4.266667-29.866667 8.533333-64 8.533333-93.866667 0-55.466667-8.533333-106.666667-21.333333-162.133333-4.266667-17.066667-21.333333-25.6-38.4-21.333333-17.066667 4.266667-25.6 21.333333-21.333334 38.4 12.8 46.933333 21.333333 98.133333 21.333334 145.066666 0 25.6 0 51.2-4.266667 76.8-59.733333-12.8-132.266667-25.6-209.066667-25.6V341.33333300000004c0-17.066667-12.8-34.133333-34.133333-34.133333-17.066667 0-29.866667 12.8-29.866667 25.6V413.866667c-76.8 0-145.066667 12.8-209.066666 25.6-4.266667-21.333333-4.266667-38.4-4.266667-59.733334 0-17.066667-17.066667-29.866667-34.133333-29.866666s-34.133333 17.066667-29.866667 34.133333c0 25.6 4.266667 51.2 8.533333 76.8-17.066667 8.533333-34.133333 12.8-46.933333 21.333333-8.533333-29.866667-12.8-64-12.8-98.133333 0-17.066667-12.8-34.133333-34.133333-34.133333S85.333333 366.93333299999995 85.333333 384C85.333333 618.666667 277.333333 810.666667 512 810.666667s426.666667-192 426.666667-426.666667c0-170.666667-102.4-320-247.466667-388.266667-42.666667-21.333333-98.133333-38.4-179.2-38.4h12.8-29.866667zM328.533333 610.133333c-17.066667-29.866667-29.866667-68.266667-42.666666-106.666666 55.466667-12.8 123.733333-21.333333 196.266666-21.333334V588.8c-55.466667 0-110.933333 8.533333-153.6 21.333333z m371.2 4.266667h-4.266666c-46.933333-12.8-98.133333-21.333333-149.333334-25.6v-106.666667c72.533333 4.266667 140.8 12.8 196.266667 25.6-12.8 38.4-25.6 72.533333-42.666667 106.666667zM256 640c-29.866667-25.6-51.2-59.733333-68.266667-98.133333 8.533333-8.533333 21.333333-12.8 38.4-21.333334 12.8 38.4 25.6 76.8 42.666667 110.933334-4.266667 4.266667-8.533333 8.533333-12.8 8.533333z m512 4.266667l-8.533333-4.266667c17.066667-34.133333 34.133333-72.533333 42.666666-115.2 17.066667 4.266667 25.6 12.8 38.4 17.066667-21.333333 38.4-42.666667 72.533333-72.533333 102.4z m-285.866667 98.133333c-42.666667-8.533333-81.066667-38.4-115.2-76.8 34.133333-8.533333 72.533333-12.8 115.2-17.066667V742.4z m64 0v-89.6c38.4 4.266667 81.066667 8.533333 115.2 17.066667-34.133333 38.4-76.8 64-115.2 72.533333z"  horiz-adv-x="1024" />

    


  </font>
</defs>
</svg>
